<svg width="50" height="50" viewBox="0 0 50 50" fill="none" xmlns="http://www.w3.org/2000/svg">
<circle cx="24.6957" cy="24.6957" r="24.6957" fill="#EBF8F9"/>
<path d="M21.1252 29.1913L17.2214 25.2876C17.0111 25.0772 16.7258 24.959 16.4283 24.959C16.1308 24.959 15.8455 25.0772 15.6352 25.2876C15.4248 25.4979 15.3066 25.7832 15.3066 26.0807C15.3066 26.228 15.3357 26.3738 15.392 26.5099C15.4484 26.646 15.531 26.7697 15.6352 26.8738L20.3377 31.5763C20.7764 32.0151 21.4852 32.0151 21.9239 31.5763L33.8264 19.6738C34.0368 19.4635 34.1549 19.1782 34.1549 18.8807C34.1549 18.5832 34.0368 18.2979 33.8264 18.0876C33.6161 17.8772 33.3308 17.759 33.0333 17.759C32.7358 17.759 32.4505 17.8772 32.2402 18.0876L21.1252 29.1913Z" fill="#539B5B"/>
</svg>
