<svg width="50" height="50" viewBox="0 0 50 50" fill="none" xmlns="http://www.w3.org/2000/svg">
<circle cx="24.6957" cy="24.6957" r="24.6957" fill="#FCF0ED"/>
<path fill-rule="evenodd" clip-rule="evenodd" d="M23.9173 16.8269C23.3908 17.4884 22.8002 18.5042 21.9528 19.9679L17.552 27.5692C16.7016 29.0381 16.1125 30.0601 15.7998 30.8488C15.4898 31.6307 15.5435 31.9604 15.668 32.1763C15.7924 32.3922 16.0509 32.6038 16.8829 32.7273C17.7221 32.8519 18.9017 32.8541 20.5991 32.8541H29.4005C31.0979 32.8541 32.2775 32.8519 33.1167 32.7273C33.9487 32.6038 34.2072 32.3922 34.3316 32.1763C34.4561 31.9604 34.5098 31.6307 34.1998 30.8488C33.8871 30.0601 33.298 29.0381 32.4475 27.5692L28.0468 19.9679C27.1994 18.5042 26.6088 17.4884 26.0823 16.8269C25.5606 16.1713 25.2488 16.0535 24.9998 16.0535C24.7508 16.0535 24.439 16.1713 23.9173 16.8269ZM22.6458 15.815C23.27 15.0306 23.9996 14.4285 24.9998 14.4285C26 14.4285 26.7296 15.0306 27.3538 15.815C27.9644 16.5822 28.6142 17.7045 29.4177 19.0925L29.4177 19.0925L29.4531 19.1538L33.8539 26.755L33.8893 26.8163C34.6959 28.2094 35.348 29.3357 35.7104 30.2499C36.0808 31.1843 36.2402 32.1194 35.7394 32.988C35.2387 33.8565 34.3495 34.1871 33.3553 34.3347C32.3825 34.4792 31.0811 34.4791 29.4714 34.4791H29.4713H29.4005H20.5991H20.5283H20.5282C18.9185 34.4791 17.6171 34.4792 16.6443 34.3347C15.6501 34.1871 14.7609 33.8565 14.2602 32.988C13.7594 32.1194 13.9188 31.1843 14.2892 30.2499C14.6516 29.3357 15.3037 28.2094 16.1103 26.8163L16.1457 26.755L20.5465 19.1537L20.5819 19.0926L20.5819 19.0925C21.3854 17.7046 22.0352 16.5822 22.6458 15.815ZM25.0001 20.9374C25.4488 20.9374 25.8126 21.3012 25.8126 21.7499V26.0833C25.8126 26.532 25.4488 26.8958 25.0001 26.8958C24.5513 26.8958 24.1876 26.532 24.1876 26.0833V21.7499C24.1876 21.3012 24.5513 20.9374 25.0001 20.9374ZM25.0005 30.4166C25.5988 30.4166 26.0838 29.9316 26.0838 29.3333C26.0838 28.735 25.5988 28.2499 25.0005 28.2499C24.4022 28.2499 23.9172 28.735 23.9172 29.3333C23.9172 29.9316 24.4022 30.4166 25.0005 30.4166Z" fill="#FF1010"/>
</svg>
